<?xml version="1.0" ?><!DOCTYPE svg  PUBLIC '-//W3C//DTD SVG 1.1//EN'  'http://www.w3.org/Graphics/SVG/1.1/DTD/svg11.dtd'><svg enable-background="new 0 0 48 48" height="48px" version="1.1" viewBox="0 0 48 48" width="48px" xml:space="preserve" xmlns="http://www.w3.org/2000/svg" xmlns:xlink="http://www.w3.org/1999/xlink"><g id="Layer_1"/><g id="Layer_2"><g><path d="M23.547,12.727c-1.703-0.317-2.997-1.784-3.051-3.568c-0.01-0.04-0.03-0.074-0.039-0.114H17.08l0.02,0.021    c0,0-1.041-0.034-1.914,0.616c-0.874,0.649-1.128,1.376-1.196,1.6c-0.002,0.009-0.021,0.006-0.029,0.012l-0.131,0.358v0.001    L4.425,37.404l5.417,1.451l2.842-7.8l0.002-0.004l1.144-3.14v0.103l2.921-7.753v15.968h5.807h0.365h0.625V12.727z"/><path d="M35.227,13.879L35.227,13.879l-0.93-2.534c-0.037-0.025-0.068-0.058-0.082-0.105c-0.119-0.412-0.664-1.258-1.348-1.67    c-0.686-0.412-1.748-0.503-1.748-0.503l0.07-0.021h-3.205c0,1.936-1.473,3.51-3.354,3.71v23.474h0.625h0.563h5.778l0.049-16.026    l4.041,11.38l2.549,6.999l0.1,0.372l5.418-1.451L35.227,13.879z"/></g></g></svg>