<?xml version="1.0" standalone="no"?>
<!DOCTYPE svg PUBLIC "-//W3C//DTD SVG 20010904//EN"
 "http://www.w3.org/TR/2001/REC-SVG-20010904/DTD/svg10.dtd">
<svg version="1.0" xmlns="http://www.w3.org/2000/svg"
 width="50.000000pt" height="50.000000pt" viewBox="0 0 50.000000 50.000000"
 preserveAspectRatio="xMidYMid meet">
<metadata>
Created by potrace 1.10, written by Peter Selinger 2001-2011
</metadata>
<g transform="translate(0.000000,50.000000) scale(0.100000,-0.100000)"
fill="#000000" stroke="none">
<path d="M175 470 c-3 -5 -28 -10 -54 -10 -58 0 -77 -18 -87 -79 -4 -23 -13
-45 -20 -48 -8 -3 -14 -9 -14 -14 0 -6 7 -6 18 0 12 6 23 31 31 65 13 60 21
66 86 66 24 0 47 5 50 10 3 6 33 10 65 10 32 0 62 -4 65 -10 3 -5 26 -10 50
-10 65 0 73 -6 86 -66 8 -34 19 -59 31 -65 11 -6 18 -6 18 0 0 5 -6 11 -14 14
-7 3 -16 25 -20 48 -10 61 -29 79 -87 79 -26 0 -51 5 -54 10 -3 6 -37 10 -75
10 -38 0 -72 -4 -75 -10z"/>
<path d="M195 440 c-3 -5 -30 -10 -60 -10 l-54 0 -11 -42 c-6 -24 -13 -49 -15
-55 -3 -10 40 -13 195 -13 155 0 198 3 195 13 -2 6 -9 31 -15 55 l-11 42 -54
0 c-30 0 -57 5 -60 10 -3 6 -28 10 -55 10 -27 0 -52 -4 -55 -10z m143 -46 c26
-4 42 -12 42 -21 0 -11 -24 -13 -132 -11 -135 3 -173 17 -82 30 25 4 49 10 52
13 4 4 23 4 42 1 19 -3 54 -9 78 -12z"/>
<path d="M0 248 c0 -3 3 -8 8 -10 4 -1 15 -34 25 -73 10 -38 25 -84 32 -102
l14 -33 171 0 171 0 14 33 c7 18 22 64 32 102 10 39 21 72 25 73 30 13 -23 17
-242 17 -137 0 -250 -3 -250 -7z m469 -25 c0 -5 -13 -46 -28 -93 l-27 -85
-164 0 -164 0 -27 85 c-15 47 -28 88 -28 93 -1 4 98 7 219 7 121 0 220 -3 219
-7z"/>
<path d="M160 135 c0 -37 4 -65 10 -65 6 0 10 28 10 65 0 37 -4 65 -10 65 -6
0 -10 -28 -10 -65z"/>
<path d="M240 135 c0 -37 4 -65 10 -65 6 0 10 28 10 65 0 37 -4 65 -10 65 -6
0 -10 -28 -10 -65z"/>
<path d="M320 135 c0 -37 4 -65 10 -65 6 0 10 28 10 65 0 37 -4 65 -10 65 -6
0 -10 -28 -10 -65z"/>
</g>
</svg>
