<?xml version="1.0" standalone="no"?>
<!DOCTYPE svg PUBLIC "-//W3C//DTD SVG 20010904//EN"
 "http://www.w3.org/TR/2001/REC-SVG-20010904/DTD/svg10.dtd">
<svg version="1.0" xmlns="http://www.w3.org/2000/svg"
 width="50.000000pt" height="50.000000pt" viewBox="0 0 50.000000 50.000000"
 preserveAspectRatio="xMidYMid meet">
<metadata>
Created by potrace 1.10, written by Peter Selinger 2001-2011
</metadata>
<g transform="translate(0.000000,50.000000) scale(0.100000,-0.100000)"
fill="#000000" stroke="none">
<path d="M14 456 c-8 -21 11 -51 53 -83 l37 -28 -50 -5 c-49 -5 -49 -5 -52
-45 -2 -25 2 -43 10 -50 8 -5 19 -28 25 -50 7 -22 19 -66 28 -97 l16 -58 169
0 169 0 16 58 c9 31 21 75 28 97 6 22 17 45 25 50 8 7 12 25 10 50 -3 40 -3
40 -50 43 l-47 3 45 44 c48 45 55 78 19 83 -13 2 -41 -19 -85 -63 l-64 -65
-66 0 -66 0 -64 65 c-63 64 -95 79 -106 51z m101 -76 c38 -38 66 -73 62 -77
-8 -7 -147 125 -147 139 0 18 19 4 85 -62z m355 62 c0 -14 -139 -146 -147
-139 -4 4 24 39 62 77 66 66 85 80 85 62z m-330 -143 c30 -23 60 -20 60 6 0
11 12 15 50 15 38 0 50 -4 50 -15 0 -26 30 -29 60 -6 20 14 44 21 75 21 43 0
45 -1 45 -30 l0 -30 -230 0 -230 0 0 30 c0 29 2 30 45 30 31 0 55 -7 75 -21z
m15 -136 c0 -74 1 -78 23 -81 23 -4 24 -2 20 77 -2 67 0 81 12 81 12 0 15 -15
15 -77 0 -77 0 -78 25 -78 25 0 25 1 25 78 0 62 3 77 15 77 12 0 14 -14 12
-81 -4 -79 -3 -81 20 -77 22 3 23 7 23 81 l0 77 53 0 c28 0 52 -3 52 -7 0 -5
-11 -44 -24 -88 l-23 -80 -153 0 -153 0 -23 80 c-13 44 -24 83 -24 88 0 4 24
7 53 7 l52 0 0 -77z m35 -4 c0 -33 -4 -59 -10 -59 -6 0 -10 29 -10 66 0 41 4
63 10 59 6 -3 10 -33 10 -66z m140 6 c0 -37 -4 -65 -10 -65 -11 0 -14 113 -3
123 12 13 13 7 13 -58z m-70 -5 c0 -33 -4 -60 -10 -60 -6 0 -10 27 -10 60 0
33 4 60 10 60 6 0 10 -27 10 -60z"/>
</g>
</svg>
