<?xml version="1.0" standalone="no"?>
<!DOCTYPE svg PUBLIC "-//W3C//DTD SVG 20010904//EN"
 "http://www.w3.org/TR/2001/REC-SVG-20010904/DTD/svg10.dtd">
<svg version="1.0" xmlns="http://www.w3.org/2000/svg"
 width="50.000000pt" height="50.000000pt" viewBox="0 0 50.000000 50.000000"
 preserveAspectRatio="xMidYMid meet">
<metadata>
Created by potrace 1.10, written by Peter Selinger 2001-2011
</metadata>
<g transform="translate(0.000000,50.000000) scale(0.100000,-0.100000)"
fill="#000000" stroke="none">
<path d="M185 460 c-3 -5 -31 -10 -60 -10 -61 0 -70 -8 -81 -79 -4 -26 -14
-46 -26 -52 -13 -7 -18 -19 -16 -37 l3 -27 245 0 245 0 3 27 c2 18 -3 30 -16
37 -12 6 -22 26 -26 52 -11 71 -20 79 -81 79 -29 0 -57 5 -60 10 -3 6 -33 10
-65 10 -32 0 -62 -4 -65 -10z m120 -20 c3 -5 30 -10 60 -10 l54 0 11 -42 c6
-24 13 -49 15 -55 3 -10 -40 -13 -195 -13 -155 0 -198 3 -195 13 2 6 9 31 15
55 l11 42 54 0 c30 0 57 5 60 10 3 6 28 10 55 10 27 0 52 -4 55 -10z"/>
<path d="M30 224 c0 -3 12 -45 27 -95 l27 -89 166 0 166 0 27 89 c15 50 27 92
27 95 0 4 -99 6 -220 6 -121 0 -220 -2 -220 -6z m150 -89 c0 -37 -4 -65 -10
-65 -6 0 -10 28 -10 65 0 37 4 65 10 65 6 0 10 -28 10 -65z m80 0 c0 -37 -4
-65 -10 -65 -6 0 -10 28 -10 65 0 37 4 65 10 65 6 0 10 -28 10 -65z m80 0 c0
-37 -4 -65 -10 -65 -6 0 -10 28 -10 65 0 37 4 65 10 65 6 0 10 -28 10 -65z
m-220 13 c0 -48 -16 -42 -26 10 -5 25 -3 32 10 32 12 0 16 -10 16 -42z m286
10 c-10 -52 -26 -58 -26 -10 0 32 4 42 16 42 13 0 15 -7 10 -32z"/>
</g>
</svg>
